#!OML:ASF H:\Terrain\Patient Classification 1\Takeo\Monday\TakeoMonday.ASF
:FULLY-SPECIFIED
:DEGREES
1739
root 9.05931 17.6748 -2.00641 -11.4907 -24.4103 3.49374
lowerback 5.10852 -0.0307524 0.448235
upperback 1.88236 -0.0142565 1.10114
thorax -0.929506 -0.012694 0.87905
lowerneck -7.53463 6.24982 -0.107867
upperneck 13.4181 8.87248 -2.75168
head 5.40482 4.13636 -0.22577
rclavicle 3.80176e-014 -7.95139e-016
rhumerus -23.7415 3.1013 -87.0751
rradius 16.2516
rwrist 2.3747
rhand -22.2278 17.1838
rfingers 7.12502
rthumb 4.18878 -12.7547
lclavicle 3.80176e-014 -7.95139e-016
lhumerus -29.9445 21.9637 84.3974
lradius 22.4182
lwrist 18.3696
lhand -31.1313 16.3293
lfingers 7.12502
lthumb -4.40989 46.2634
rfemur 10.7187 -5.51679 20.1767
rtibia 16.673
rfoot -18.2439 -18.986
rtoes 4.99796
lfemur 0.0945253 -4.56517 -16.5632
ltibia 6.59526
lfoot 4.2955 24.036
ltoes -1.18082
1740
root 9.04275 17.6796 -1.99885 -11.6108 -24.1589 3.97229
lowerback 4.94788 -0.0330009 -0.0890435
upperback 1.86373 -0.0447503 0.979172
thorax -0.858433 -0.0287722 1.05686
lowerneck -8.13554 6.37216 1.06437
upperneck 13.9434 9.09542 -3.96698
head 5.78698 4.19674 -0.73419
rclavicle -4.96962e-016 0
rhumerus -23.0583 -2.58171 -85.3354
rradius 13.614
rwrist 8.2616
rhand -22.4181 17.4105
rfingers 7.12502
rthumb 4.00506 -12.5316
lclavicle -4.96962e-016 0
lhumerus -30.5196 24.7756 82.865
lradius 21.3923
lwrist 17.4408
lhand -31.4825 18.3961
lfingers 7.12502
lthumb -4.74908 48.3229
rfemur 10.7393 -5.61254 19.6977
rtibia 16.6384
rfoot -18.2757 -19.1543
rtoes 3.68994
lfemur 0.136189 -4.74065 -17.0682
ltibia 6.39123
lfoot 4.04851 24.3091
ltoes 0.439411
1741
root 9.03421 17.6858 -1.99276 -11.587 -24.1915 4.30012
lowerback 4.72087 0.128377 -0.298231
upperback 1.84038 0.159863 0.890818
thorax -0.760031 0.0732156 1.07237
lowerneck -8.098 6.34746 1.04312
upperneck 13.6938 9.07298 -4.10203
head 5.70736 4.18153 -0.779614
rclavicle -1.12313e-014 9.54166e-015
rhumerus -22.8385 -7.01502 -83.7623
rradius 11.7214
rwrist 12.3612
rhand -22.7412 17.2429
rfingers 7.12502
rthumb 3.69301 -12.7049
lclavicle -1.12313e-014 9.54166e-015
lhumerus -30.8696 26.3015 81.8342
lradius 20.3056
lwrist 17.225
lhand -31.4603 20.3793
lfingers 7.12502
lthumb -4.72758 50.3066
rfemur 10.6498 -5.63002 19.3629
rtibia 16.5486
rfoot -18.2829 -19.1234
rtoes 3.12194
lfemur 0.0646849 -4.66177 -17.3714
ltibia 6.29083
lfoot 4.55696 24.0492
ltoes -1.26092
1742
root 9.03306 17.6826 -1.98434 -11.615 -24.4586 3.87871
lowerback 4.87428 0.279296 0.348582
upperback 1.96436 0.3896 0.975035
thorax -0.719461 0.189259 0.783332
lowerneck -7.5185 6.35697 -0.0570623
upperneck 12.824 9.07648 -3.38467
head 5.25357 4.20939 -0.423856
rclavicle -1.85864e-014 6.36111e-015
rhumerus -22.903 -10.1794 -82.4645
rradius 10.5258
rwrist 15.0737
rhand -22.972 16.4338
rfingers 7.12502
rthumb 3.47017 -13.5177
lclavicle -1.85864e-014 6.36111e-015
lhumerus -31.169 27.7553 80.8477
lradius 19.3008
lwrist 16.6126
lhand -31.8109 20.5974
lfingers 7.12502
lthumb -5.06618 50.5169
rfemur 10.9088 -5.68111 19.7393
rtibia 16.4836
rfoot -18.2364 -18.864
rtoes 3.33308
lfemur 0.432016 -4.50755 -16.9149
ltibia 6.1641
lfoot 4.90648 23.7935
ltoes -3.69802
1743
root 9.02515 17.6783 -1.97384 -11.6714 -24.4813 3.37516
lowerback 5.00616 0.253475 0.885152
upperback 2.13311 0.379352 1.14051
thorax -0.61711 0.185227 0.65261
lowerneck -8.47875 6.41136 1.52187
upperneck 13.336 9.25138 -5.2612
head 5.74494 4.21047 -1.18962
rclavicle -7.25564e-015 2.38542e-015
rhumerus -22.8263 -11.1186 -82.1029
rradius 9.60944
rwrist 15.7511
rhand -23.4936 16.1899
rfingers 7.12502
rthumb 2.96642 -13.7692
lclavicle -7.25564e-015 2.38542e-015
lhumerus -31.8866 29.8516 79.4866
lradius 18.7728
lwrist 15.5562
lhand -31.692 20.3428
lfingers 7.12502
lthumb -4.95135 50.265
rfemur 11.2898 -5.82375 20.2032
rtibia 16.4105
rfoot -18.2615 -18.7923
rtoes 2.91152
lfemur 0.76275 -4.61266 -16.4134
ltibia 6.21424
lfoot 4.58867 23.8305
ltoes -3.45104
1744
root 9.01308 17.6796 -1.96455 -11.8208 -24.2574 3.77464
lowerback 4.88754 0.200438 0.461984
upperback 2.15499 0.287316 1.07046
thorax -0.529968 0.137536 0.823501
lowerneck -8.55189 6.58048 1.95211
upperneck 13.0435 9.49166 -5.84238
head 5.72424 4.31287 -1.41791
rclavicle -4.17945e-014 -1.74931e-014
rhumerus -22.9871 -11.9771 -81.8114
rradius 9.03089
rwrist 16.451
rhand -24.059 16.3716
rfingers 7.12502
rthumb 2.4204 -13.5944
lclavicle -4.17945e-014 -1.74931e-014
lhumerus -32.8404 31.4156 78.1199
lradius 18.6014
lwrist 15.4677
lhand -30.8707 21.4012
lfingers 7.12502
lthumb -4.15831 51.3403
rfemur 11.4703 -5.88728 19.7813
rtibia 16.1919
rfoot -18.3625 -18.5916
rtoes 3.58064
lfemur 0.547283 -4.77593 -16.846
ltibia 6.69832
lfoot 4.28964 23.8082
ltoes -2.38382
1745
root 9.00539 17.6786 -1.95939 -11.7955 -24.1166 4.16454
lowerback 4.76113 0.25445 0.160078
upperback 2.0952 0.345353 0.958033
thorax -0.522676 0.165855 0.874825
lowerneck -8.66182 6.62507 1.82872
upperneck 12.8345 9.5584 -5.8551
head 5.67527 4.34173 -1.39607
rclavicle 5.54112e-014 8.74653e-015
rhumerus -23.6737 -12.9811 -81.1727
rradius 9.18769
rwrist 16.9915
rhand -24.4332 16.2229
rfingers 7.12502
rthumb 2.05899 -13.7469
lclavicle 5.54112e-014 8.74653e-015
lhumerus -33.4999 31.8876 77.3985
lradius 18.6398
lwrist 16.9484
lhand -30.6229 22.7136
lfingers 7.12502
lthumb -3.91902 52.6573
rfemur 11.4771 -5.81015 19.4261
rtibia 15.8909
rfoot -18.4022 -18.4319
rtoes 4.88715
lfemur 0.0544043 -4.85032 -17.2364
ltibia 7.29913
lfoot 4.5476 23.6133
ltoes -3.21235
1746
root 8.99498 17.6769 -1.95351 -11.528 -24.1247 3.89705
lowerback 4.62374 0.382824 0.563874
upperback 2.11389 0.532368 1.0036
thorax -0.426274 0.261363 0.686513
lowerneck -8.67277 6.6492 1.31209
upperneck 12.4901 9.59294 -5.52435
head 5.52958 4.36669 -1.21579
rclavicle -3.42407e-014 -2.06736e-014
rhumerus -24.4587 -14.1806 -80.3025
rradius 9.63527
rwrist 17.4766
rhand -24.3515 16.6106
rfingers 7.12502
rthumb 2.13789 -13.3585
lclavicle -3.42407e-014 -2.06736e-014
lhumerus -33.8029 31.2728 77.542
lradius 18.8748
lwrist 18.734
lhand -31.6574 22.6576
lfingers 7.12502
lthumb -4.91795 52.5805
rfemur 11.4524 -5.74105 19.7819
rtibia 15.6636
rfoot -18.2642 -18.6102
rtoes 5.18726
lfemur -0.308062 -4.90128 -16.9073
ltibia 7.69978
lfoot 4.28342 23.6026
ltoes -3.14068
1747
root 8.98165 17.6736 -1.9462 -11.1675 -24.2521 3.20217
lowerback 4.62336 0.41341 1.22943
upperback 2.07511 0.602427 1.18335
thorax -0.461157 0.299072 0.494113
lowerneck -7.99317 6.88415 0.523447
upperneck 11.6041 9.84911 -4.74743
head 5.06913 4.54659 -0.877094
rclavicle -1.01877e-014 -1.90833e-014
rhumerus -25.23 -15.0844 -79.6019
rradius 10.0235
rwrist 17.9296
rhand -23.9638 17.5941
rfingers 7.12502
rthumb 2.51233 -12.3709
lclavicle -1.01877e-014 -1.90833e-014
lhumerus -34.5274 30.9925 77.272
lradius 19.1123
lwrist 18.8269
lhand -32.9545 21.8466
lfingers 7.12502
lthumb -6.17033 51.7367
rfemur 11.5118 -5.63205 20.6021
rtibia 15.4203
rfoot -17.9619 -18.8927
rtoes 5.10597
lfemur -0.559082 -4.91281 -16.1279
ltibia 8.12449
lfoot 3.03117 23.9335
ltoes -0.941165
1748
root 8.97175 17.6729 -1.93601 -10.9678 -24.3771 2.83023
lowerback 4.60063 0.406034 1.57995
upperback 2.0736 0.606959 1.26355
thorax -0.446988 0.302804 0.379908
lowerneck -7.71885 7.01745 0.331488
upperneck 11.028 9.9967 -4.59384
head 4.83142 4.64112 -0.81211
rclavicle -5.82936e-014 -3.97569e-015
rhumerus -25.7197 -12.4871 -80.5806
rradius 10.8343
rwrist 14.6532
rhand -24.1787 17.9046
rfingers 7.12502
rthumb 2.30476 -12.0627
lclavicle -5.82936e-014 -3.97569e-015
lhumerus -35.353 31.2725 76.5329
lradius 19.3514
lwrist 18.3341
lhand -32.8318 21.3712
lfingers 7.12502
lthumb -6.05184 51.2647
rfemur 11.6408 -5.65435 21.0095
rtibia 15.0845
rfoot -17.4034 -19.0254
rtoes 3.22855
lfemur -0.839342 -4.86069 -15.7214
ltibia 8.69926
lfoot 2.54646 24.0299
ltoes -1.46743
1749
root 8.96511 17.6793 -1.92291 -11.0593 -24.3525 3.04121
lowerback 4.48921 0.526822 1.67657
upperback 2.17439 0.765809 1.09429
thorax -0.277008 0.384883 0.146395
lowerneck -7.84416 6.91333 0.344298
upperneck 10.7495 9.86052 -4.7595
head 4.7724 4.56957 -0.874199
rclavicle 4.12478e-014 -1.27222e-014
rhumerus -26.342 -9.75247 -81.6844
rradius 12.0665
rwrist 10.7406
rhand -24.4617 17.4161
rfingers 7.12502
rthumb 2.0315 -12.554
lclavicle 4.12478e-014 -1.27222e-014
lhumerus -35.7517 30.8262 76.3348
lradius 19.6155
lwrist 18.6163
lhand -32.2004 21.1771
lfingers 7.12502
lthumb -5.44222 51.0872
rfemur 11.7971 -5.80771 20.7263
rtibia 14.8461
rfoot -17.0707 -18.9638
rtoes 1.5973
lfemur -0.969979 -4.87019 -15.9605
ltibia 9.08811
lfoot 2.6841 23.9243
ltoes -3.12747
1750
root 8.96196 17.6848 -1.91599 -11.1776 -24.367 3.2851
lowerback 4.69308 0.582969 1.60724
upperback 2.08654 0.844265 1.00661
thorax -0.479818 0.422758 0.0887012
lowerneck -7.76264 7.02276 0.199961
upperneck 10.5681 10.0021 -4.65765
head 4.69415 4.64608 -0.818227
rclavicle 3.52843e-014 1.03368e-014
rhumerus -27.28 -7.26996 -82.5529
rradius 13.3792
rwrist 7.45295
rhand -24.3338 17.2122
rfingers 7.12502
rthumb 2.15496 -12.7567
lclavicle 3.52843e-014 1.03368e-014
lhumerus -36.6242 30.1541 76.3377
lradius 20.3293
lwrist 19.7713
lhand -32.733 20.0707
lfingers 7.12502
lthumb -5.95644 49.967
rfemur 11.8191 -5.8417 20.4265
rtibia 14.9192
rfoot -17.1732 -18.8334
rtoes 2.21038
lfemur -0.831136 -4.83553 -16.2082
ltibia 8.9526
lfoot 2.86095 24.0149
ltoes -2.50993
1751
root 8.95809 17.6844 -1.91397 -11.2316 -24.4346 3.43098
lowerback 5.02547 0.503319 1.23992
upperback 1.9526 0.732636 1.1076
thorax -0.809838 0.363072 0.399518
lowerneck -7.75167 7.33472 0.437309
upperneck 10.4078 10.4216 -4.94274
head 4.68147 4.8485 -0.914594
rclavicle -3.36443e-014 -8.74653e-015
rhumerus -28.3208 -4.49121 -83.4362
rradius 14.9162
rwrist 4.33599
rhand -24.0999 17.7398
rfingers 7.12502
rthumb 2.38085 -12.2266
lclavicle -3.36443e-014 -8.74653e-015
lhumerus -37.8547 30.1038 76.1076
lradius 21.263
lwrist 20.8268
lhand -32.9025 18.7432
lfingers 7.12502
lthumb -6.12009 48.6348
rfemur 11.7207 -5.84071 20.2664
rtibia 15.1529
rfoot -17.3346 -18.6954
rtoes 3.03294
lfemur -0.600625 -4.76308 -16.3237
ltibia 8.54225
lfoot 2.85593 24.3698
ltoes -0.152866
1752
root 8.95102 17.6785 -1.9058 -11.3417 -24.3429 3.63675
lowerback 5.08279 0.454337 0.918031
upperback 2.03472 0.651898 1.14182
thorax -0.761766 0.321548 0.619552
lowerneck -7.93623 7.48855 0.498684
upperneck 10.1171 10.642 -5.232
head 4.64866 4.94586 -0.9937
rclavicle 6.36111e-015 -1.19271e-014
rhumerus -29.16 -1.6074 -84.412
rradius 16.576
rwrist 0.774997
rhand -23.878 18.0433
rfingers 7.12502
rthumb 2.59516 -11.9206
lclavicle 6.36111e-015 -1.19271e-014
lhumerus -38.5294 30.16 75.9016
lradius 21.6617
lwrist 20.9036
lhand -32.1678 18.6174
lfingers 7.12502
lthumb -5.41071 48.5283
rfemur 11.7398 -5.97497 20.021
rtibia 15.3029
rfoot -17.5295 -18.506
rtoes 3.14852
lfemur -0.419905 -4.84823 -16.5538
ltibia 8.3161
lfoot 2.3777 24.5727
ltoes 1.18876
1753
root 8.94132 17.6731 -1.89367 -11.3802 -24.2935 3.76792
lowerback 4.96529 0.446866 0.821331
upperback 2.16255 0.633071 1.13457
thorax -0.56602 0.311979 0.669003
lowerneck -8.17385 7.55534 0.0876863
upperneck 9.83 10.7527 -5.11143
head 4.57484 4.99555 -0.884043
rclavicle 1.38652e-014 0
rhumerus -30.0051 0.781094 -85.2713
rradius 18.2536
rwrist -2.38619
rhand -23.6782 17.9662
rfingers 7.12502
rthumb 2.78814 -11.9953
lclavicle 1.38652e-014 0
lhumerus -38.9343 29.6629 76.0313
lradius 22.1337
lwrist 21.3305
lhand -31.6185 18.9845
lfingers 7.12502
lthumb -4.8804 48.9083
rfemur 11.7443 -6.0648 19.8653
rtibia 15.4217
rfoot -17.8055 -18.2919
rtoes 3.08534
lfemur -0.296183 -4.89346 -16.7079
ltibia 8.15985
lfoot 2.9007 24.209
ltoes -1.70821
